<?xml version="1.0" encoding="utf-8"?>
<!DOCTYPE score-partwise  PUBLIC "-//Recordare//DTD MusicXML 4.0 Partwise//EN" "http://www.musicxml.org/dtds/partwise.dtd">
<score-partwise version="4.0">
  <work>
    <work-title>Alice in wonderland</work-title>
  </work>
  <movement-title>Alice in wonderland.musicxml</movement-title>
  <identification>
    <creator type="composer">Music21</creator>
    <rights>cc-by 4.0</rights>
    <encoding>
      <encoding-date>2025-03-27</encoding-date>
      <software>music21 v.9.5.0</software>
      <software>MuseScore 4.2.1</software>
      <supports attribute="new-system" element="print" type="yes" value="yes" />
      <supports attribute="new-page" element="print" type="yes" value="yes" />
    </encoding>
  </identification>
  <defaults>
    <scaling>
      <millimeters>6.99911</millimeters>
      <tenths>40</tenths>
    </scaling>
    <page-layout>
      <page-height>1696.94</page-height>
      <page-width>1200.48</page-width>
      <page-margins>
        <left-margin>85.7252</left-margin>
        <right-margin>85.7252</right-margin>
        <top-margin>85.7252</top-margin>
        <bottom-margin>85.7252</bottom-margin>
      </page-margins>
    </page-layout>
    <appearance>
      <line-width type="light barline">1.8</line-width>
      <line-width type="heavy barline">5.5</line-width>
      <line-width type="beam">5</line-width>
      <line-width type="bracket">4.5</line-width>
      <line-width type="dashes">1</line-width>
      <line-width type="enclosure">1</line-width>
      <line-width type="ending">1.1</line-width>
      <line-width type="extend">1</line-width>
      <line-width type="leger">1.6</line-width>
      <line-width type="pedal">1.1</line-width>
      <line-width type="octave shift">1.1</line-width>
      <line-width type="slur middle">2.1</line-width>
      <line-width type="slur tip">0.5</line-width>
      <line-width type="staff">1.1</line-width>
      <line-width type="stem">1</line-width>
      <line-width type="tie middle">2.1</line-width>
      <line-width type="tie tip">0.5</line-width>
      <line-width type="tuplet bracket">1</line-width>
      <line-width type="wedge">1.2</line-width>
      <note-size type="cue">70</note-size>
      <note-size type="grace">70</note-size>
      <note-size type="grace-cue">49</note-size>
    </appearance>
    <music-font font-family="Leland" />
    <word-font font-family="MuseJazz Text" font-size="10" />
    <lyric-font font-family="MuseJazz Text" font-size="11" />
  </defaults>
  <credit page="1">
    <credit-words default-x="600.24" default-y="1611.21" font-family="Edwin" font-size="22" justify="center" valign="top">Alice in wonderland</credit-words>
  </credit>
  <credit page="1">
    <credit-words default-x="600.24" default-y="85.7252" justify="center" valign="bottom">cc-by 4.0</credit-words>
  </credit>
  <part-list>
    <score-part id="P1">
      <part-name>Piano</part-name>
      <part-abbreviation>Pno.</part-abbreviation>
      <score-instrument id="Id5b68354f8ccd3f7d8d0c7b50352e35b">
        <instrument-name>Piano</instrument-name>
        <instrument-abbreviation>Pno</instrument-abbreviation>
      </score-instrument>
      <midi-instrument id="Id5b68354f8ccd3f7d8d0c7b50352e35b">
        <midi-channel>1</midi-channel>
        <midi-program>1</midi-program>
      </midi-instrument>
    </score-part>
  </part-list>
  <!--=========================== Part 1 ===========================-->
  <part id="P1">
    <!--========================= Measure 1 ==========================-->
    <measure implicit="no" number="1" width="214.72">
      <print>
        <system-layout>
          <system-margins>
            <left-margin>50</left-margin>
            <right-margin>0</right-margin>
          </system-margins>
          <top-system-distance>171.87</top-system-distance>
        </system-layout>
      </print>
      <attributes>
        <divisions>10080</divisions>
        <key>
          <fifths>0</fifths>
        </key>
        <time>
          <beats>3</beats>
          <beat-type>4</beat-type>
        </time>
        <clef>
          <sign>G</sign>
          <line>2</line>
        </clef>
      </attributes>
      <barline location="left">
        <repeat direction="forward" />
      </barline>
      <direction placement="above">
        <direction-type>
          <words default-x="-64.54" enclosure="none" font-size="12" font-weight="bold" relative-y="20">(Med.)</words>
        </direction-type>
      </direction>
      <direction placement="above">
        <direction-type>
          <words default-y="42.64" enclosure="none" font-size="12" relative-y="10">Swing</words>
        </direction-type>
      </direction>
      <direction>
        <direction-type>
          <words color="#808080" enclosure="none" font-style="italic">C major (0)</words>
        </direction-type>
      </direction>
      <direction placement="above">
        <direction-type>
          <words />
        </direction-type>
        <sound tempo="114" />
      </direction>
      <harmony>
        <root>
          <root-step>D</root-step>
        </root>
        <kind text="m7">minor-seventh</kind>
      </harmony>
      <note default-x="107.07" default-y="-30">
        <pitch>
          <step>G</step>
          <octave>4</octave>
        </pitch>
        <duration>30240</duration>
        <type>half</type>
        <dot />
        <stem>up</stem>
      </note>
    </measure>
    <!--======================== Measure 602 =========================-->
    <measure implicit="no" number="602" width="153.96">
      <direction>
        <direction-type>
          <words color="#808080" enclosure="none" font-style="italic">C major (0)</words>
        </direction-type>
      </direction>
      <harmony>
        <root>
          <root-step>G</root-step>
        </root>
        <kind text="7">dominant</kind>
      </harmony>
      <note default-x="13" default-y="5">
        <pitch>
          <step>G</step>
          <octave>5</octave>
        </pitch>
        <duration>20160</duration>
        <type>half</type>
        <stem>down</stem>
      </note>
      <note default-x="96.5" default-y="0">
        <pitch>
          <step>F</step>
          <octave>5</octave>
        </pitch>
        <duration>10080</duration>
        <type>quarter</type>
        <stem>down</stem>
      </note>
    </measure>
    <!--======================== Measure 603 =========================-->
    <measure implicit="no" number="603" width="153.96">
      <direction>
        <direction-type>
          <words color="#808080" enclosure="none" font-style="italic">C major (0)</words>
        </direction-type>
      </direction>
      <harmony>
        <root>
          <root-step>C</root-step>
        </root>
        <kind text="maj7">major-seventh</kind>
      </harmony>
      <note default-x="13" default-y="-5">
        <pitch>
          <step>E</step>
          <octave>5</octave>
        </pitch>
        <duration>20160</duration>
        <type>half</type>
        <stem>down</stem>
      </note>
      <note default-x="96.5" default-y="-15">
        <pitch>
          <step>C</step>
          <octave>5</octave>
        </pitch>
        <duration>10080</duration>
        <type>quarter</type>
        <stem>down</stem>
      </note>
    </measure>
    <!--======================== Measure 604 =========================-->
    <measure implicit="no" number="604" width="120.64">
      <direction>
        <direction-type>
          <words color="#808080" enclosure="none" font-style="italic">C major (0)</words>
        </direction-type>
      </direction>
      <harmony>
        <root>
          <root-step>F</root-step>
        </root>
        <kind text="maj7">major-seventh</kind>
      </harmony>
      <note default-x="13" default-y="-30">
        <pitch>
          <step>G</step>
          <octave>4</octave>
        </pitch>
        <duration>30240</duration>
        <type>half</type>
        <dot />
        <stem>up</stem>
      </note>
    </measure>
    <!--======================== Measure 605 =========================-->
    <measure implicit="no" number="605" width="181.79">
      <direction>
        <direction-type>
          <words color="#808080" enclosure="none" font-style="italic">C major (0)</words>
        </direction-type>
      </direction>
      <harmony>
        <root>
          <root-step>B</root-step>
        </root>
        <kind>half-diminished</kind>
      </harmony>
      <note default-x="13" default-y="-10">
        <pitch>
          <step>D</step>
          <octave>5</octave>
        </pitch>
        <duration>10080</duration>
        <type>quarter</type>
        <stem>down</stem>
      </note>
      <note default-x="68.66" default-y="-5">
        <pitch>
          <step>E</step>
          <octave>5</octave>
        </pitch>
        <duration>10080</duration>
        <type>quarter</type>
        <stem>down</stem>
      </note>
      <note default-x="124.33" default-y="0">
        <pitch>
          <step>F</step>
          <octave>5</octave>
        </pitch>
        <duration>10080</duration>
        <type>quarter</type>
        <stem>down</stem>
      </note>
    </measure>
    <!--======================== Measure 606 =========================-->
    <measure implicit="no" number="606" width="153.96">
      <direction>
        <direction-type>
          <words color="#808080" enclosure="none" font-style="italic">a minor (0)</words>
        </direction-type>
      </direction>
      <harmony>
        <root>
          <root-step>E</root-step>
        </root>
        <kind text="7">dominant</kind>
      </harmony>
      <note default-x="13" default-y="-5">
        <pitch>
          <step>E</step>
          <octave>5</octave>
        </pitch>
        <duration>20160</duration>
        <type>half</type>
        <stem>down</stem>
      </note>
      <note default-x="96.5" default-y="-10">
        <pitch>
          <step>D</step>
          <octave>5</octave>
        </pitch>
        <duration>10080</duration>
        <type>quarter</type>
        <stem>down</stem>
      </note>
    </measure>
    <!--======================== Measure 607 =========================-->
    <measure implicit="no" number="607" width="210.07">
      <print new-system="yes">
        <system-layout>
          <system-margins>
            <left-margin>0</left-margin>
            <right-margin>0</right-margin>
          </system-margins>
          <system-distance>137.66</system-distance>
        </system-layout>
      </print>
      <direction>
        <direction-type>
          <words color="#808080" enclosure="none" font-style="italic">C major (0)</words>
        </direction-type>
      </direction>
      <harmony>
        <root>
          <root-step>A</root-step>
        </root>
        <kind text="m7">minor-seventh</kind>
      </harmony>
      <note default-x="58.1" default-y="-5">
        <pitch>
          <step>E</step>
          <octave>5</octave>
        </pitch>
        <duration>20160</duration>
        <type>half</type>
        <stem>down</stem>
      </note>
      <note default-x="148.2" default-y="-15">
        <pitch>
          <step>C</step>
          <octave>5</octave>
        </pitch>
        <duration>10080</duration>
        <type>quarter</type>
        <stem>down</stem>
      </note>
    </measure>
    <!--======================== Measure 608 =========================-->
    <measure implicit="no" number="608" width="129.02">
      <direction>
        <direction-type>
          <words color="#808080" enclosure="none" font-style="italic">B- major (-2)</words>
        </direction-type>
      </direction>
      <harmony>
        <root>
          <root-step>E</root-step>
          <root-alter>-1</root-alter>
        </root>
        <kind text="7">dominant</kind>
      </harmony>
      <note default-x="13" default-y="-30">
        <pitch>
          <step>G</step>
          <octave>4</octave>
        </pitch>
        <duration>30240</duration>
        <type>half</type>
        <dot />
        <stem>up</stem>
      </note>
    </measure>
    <!--======================== Measure 609 =========================-->
    <measure implicit="no" number="609" width="195.01">
      <direction>
        <direction-type>
          <words color="#808080" enclosure="none" font-style="italic">F major (-1)</words>
        </direction-type>
      </direction>
      <harmony>
        <root>
          <root-step>D</root-step>
        </root>
        <kind text="m7">minor-seventh</kind>
      </harmony>
      <note default-x="13" default-y="-10">
        <pitch>
          <step>D</step>
          <octave>5</octave>
        </pitch>
        <duration>10080</duration>
        <type>quarter</type>
        <stem>down</stem>
      </note>
      <note default-x="73.07" default-y="-5">
        <pitch>
          <step>E</step>
          <octave>5</octave>
        </pitch>
        <duration>10080</duration>
        <type>quarter</type>
        <stem>down</stem>
      </note>
      <note default-x="133.14" default-y="0">
        <pitch>
          <step>F</step>
          <octave>5</octave>
        </pitch>
        <duration>10080</duration>
        <type>quarter</type>
        <stem>down</stem>
      </note>
    </measure>
    <!--======================== Measure 610 =========================-->
    <measure implicit="no" number="610" width="164.97">
      <direction>
        <direction-type>
          <words color="#808080" enclosure="none" font-style="italic">C major (0)</words>
        </direction-type>
      </direction>
      <harmony>
        <root>
          <root-step>G</root-step>
        </root>
        <kind text="7">dominant</kind>
      </harmony>
      <note default-x="13" default-y="-5">
        <pitch>
          <step>E</step>
          <octave>5</octave>
        </pitch>
        <duration>20160</duration>
        <type>half</type>
        <stem>down</stem>
      </note>
      <note default-x="103.1" default-y="-10">
        <pitch>
          <step>D</step>
          <octave>5</octave>
        </pitch>
        <duration>10080</duration>
        <type>quarter</type>
        <stem>down</stem>
      </note>
    </measure>
    <!--======================== Measure 611 =========================-->
    <measure implicit="no" number="611" width="164.97">
      <direction>
        <direction-type>
          <words color="#808080" enclosure="none" font-style="italic">C major (0)</words>
        </direction-type>
      </direction>
      <harmony>
        <root>
          <root-step>E</root-step>
        </root>
        <kind text="m7">minor-seventh</kind>
      </harmony>
      <note default-x="13" default-y="-5">
        <pitch>
          <step>E</step>
          <octave>5</octave>
        </pitch>
        <duration>20160</duration>
        <type>half</type>
        <stem>down</stem>
      </note>
      <note default-x="103.1" default-y="5">
        <pitch>
          <step>G</step>
          <octave>5</octave>
        </pitch>
        <duration>10080</duration>
        <type>quarter</type>
        <stem>down</stem>
      </note>
    </measure>
    <!--======================== Measure 612 =========================-->
    <measure implicit="no" number="612" width="164.97">
      <direction>
        <direction-type>
          <words color="#808080" enclosure="none" font-style="italic">C major (0)</words>
        </direction-type>
      </direction>
      <harmony>
        <root>
          <root-step>A</root-step>
        </root>
        <kind text="m7">minor-seventh</kind>
      </harmony>
      <note default-x="13" default-y="20">
        <pitch>
          <step>C</step>
          <octave>6</octave>
        </pitch>
        <duration>20160</duration>
        <type>half</type>
        <stem>down</stem>
      </note>
      <note default-x="103.1" default-y="10">
        <pitch>
          <step>A</step>
          <octave>5</octave>
        </pitch>
        <duration>10080</duration>
        <type>quarter</type>
        <stem>down</stem>
      </note>
    </measure>
    <!--======================== Measure 613 =========================-->
    <measure implicit="no" number="613" width="226.14">
      <print new-system="yes">
        <system-layout>
          <system-margins>
            <left-margin>0</left-margin>
            <right-margin>0</right-margin>
          </system-margins>
          <system-distance>137.66</system-distance>
        </system-layout>
      </print>
      <direction>
        <direction-type>
          <words color="#808080" enclosure="none" font-style="italic">C major (0)</words>
        </direction-type>
      </direction>
      <harmony>
        <root>
          <root-step>D</root-step>
        </root>
        <kind text="m7">minor-seventh</kind>
      </harmony>
      <note default-x="58.1" default-y="5">
        <pitch>
          <step>G</step>
          <octave>5</octave>
        </pitch>
        <duration>20160</duration>
        <type>half</type>
        <stem>down</stem>
      </note>
      <note default-x="157.84" default-y="0">
        <pitch>
          <step>F</step>
          <octave>5</octave>
        </pitch>
        <duration>10080</duration>
        <type>quarter</type>
        <stem>down</stem>
      </note>
    </measure>
    <!--======================== Measure 614 =========================-->
    <measure implicit="no" number="614" width="181.04">
      <direction>
        <direction-type>
          <words color="#808080" enclosure="none" font-style="italic">C major (0)</words>
        </direction-type>
      </direction>
      <harmony>
        <root>
          <root-step>G</root-step>
        </root>
        <kind text="7">dominant</kind>
      </harmony>
      <note default-x="13" default-y="-5">
        <pitch>
          <step>E</step>
          <octave>5</octave>
        </pitch>
        <duration>20160</duration>
        <type>half</type>
        <stem>down</stem>
      </note>
      <note default-x="112.75" default-y="-10">
        <pitch>
          <step>D</step>
          <octave>5</octave>
        </pitch>
        <duration>10080</duration>
        <type>quarter</type>
        <stem>down</stem>
      </note>
    </measure>
    <!--======================== Measure 615 =========================-->
    <measure implicit="no" number="615" width="141.25">
      <barline location="left">
        <bar-style>regular</bar-style>
        <ending number="1" type="start" />
      </barline>
      <direction>
        <direction-type>
          <words color="#808080" enclosure="none" font-style="italic">G major (1)</words>
        </direction-type>
      </direction>
      <harmony>
        <root>
          <root-step>E</root-step>
        </root>
        <kind text="m7">minor-seventh</kind>
      </harmony>
      <note default-x="13" default-y="5">
        <pitch>
          <step>G</step>
          <octave>5</octave>
        </pitch>
        <duration>30240</duration>
        <tie type="start" />
        <type>half</type>
        <dot />
        <stem>down</stem>
        <notations>
          <tied type="start" />
        </notations>
      </note>
      <harmony>
        <root>
          <root-step>A</root-step>
        </root>
        <kind text="7">dominant</kind>
        <offset sound="yes">-10080</offset>
      </harmony>
    </measure>
    <!--======================== Measure 616 =========================-->
    <measure implicit="no" number="616" width="158.31">
      <direction>
        <direction-type>
          <words color="#808080" enclosure="none" font-style="italic">C major (0)</words>
        </direction-type>
      </direction>
      <harmony>
        <root>
          <root-step>D</root-step>
        </root>
        <kind text="m7">minor-seventh</kind>
      </harmony>
      <note default-x="13" default-y="5">
        <pitch>
          <step>G</step>
          <octave>5</octave>
        </pitch>
        <duration>30240</duration>
        <tie type="stop" />
        <type>half</type>
        <dot />
        <stem>down</stem>
        <notations>
          <tied type="stop" />
        </notations>
      </note>
      <harmony>
        <root>
          <root-step>G</root-step>
        </root>
        <kind text="7">dominant</kind>
        <offset sound="yes">-10080</offset>
      </harmony>
      <barline location="right">
        <ending number="1" type="stop" />
        <repeat direction="backward" />
      </barline>
    </measure>
    <!--======================== Measure 617 =========================-->
    <measure implicit="no" number="617" width="141.25">
      <barline location="left">
        <bar-style>regular</bar-style>
        <ending number="2" type="start" />
      </barline>
      <direction>
        <direction-type>
          <words color="#808080" enclosure="none" font-style="italic">C major (0)</words>
        </direction-type>
      </direction>
      <harmony>
        <root>
          <root-step>C</root-step>
        </root>
        <kind text="maj7">major-seventh</kind>
      </harmony>
      <note default-x="13" default-y="-15">
        <pitch>
          <step>C</step>
          <octave>5</octave>
        </pitch>
        <duration>30240</duration>
        <tie type="start" />
        <type>half</type>
        <dot />
        <stem>down</stem>
        <notations>
          <tied type="start" />
        </notations>
      </note>
      <barline location="right">
        <bar-style>regular</bar-style>
        <ending number="2" type="stop" />
      </barline>
    </measure>
    <!--======================== Measure 618 =========================-->
    <measure implicit="no" number="618" width="181.04">
      <direction>
        <direction-type>
          <words color="#808080" enclosure="none" font-style="italic">C major (0)</words>
        </direction-type>
      </direction>
      <harmony>
        <root>
          <root-step>A</root-step>
        </root>
        <kind text="min7">minor-seventh</kind>
      </harmony>
      <note default-x="13" default-y="-15">
        <pitch>
          <step>C</step>
          <octave>5</octave>
        </pitch>
        <duration>20160</duration>
        <tie type="stop" />
        <type>half</type>
        <stem>down</stem>
        <notations>
          <tied type="stop" />
        </notations>
      </note>
      <note color="#FF0000" default-x="112.75" default-y="-15">
        <pitch>
          <step>D</step>
          <alter>-1</alter>
          <octave>5</octave>
        </pitch>
        <duration>10080</duration>
        <type>quarter</type>
        <accidental>flat</accidental>
        <stem>down</stem>
        <notehead color="#FF0000" parentheses="no">normal</notehead>
        <lyric name="1" number="1">
          <syllabic>single</syllabic>
          <text>(C#)</text>
        </lyric>
      </note>
    </measure>
    <!--======================== Measure 619 =========================-->
    <measure implicit="no" number="619" width="133.97">
      <print new-system="yes">
        <system-layout>
          <system-margins>
            <left-margin>0</left-margin>
            <right-margin>0</right-margin>
          </system-margins>
          <system-distance>137.66</system-distance>
        </system-layout>
      </print>
      <direction>
        <direction-type>
          <words color="#808080" enclosure="none" font-style="italic">G major (1)</words>
        </direction-type>
      </direction>
      <harmony>
        <root>
          <root-step>D</root-step>
        </root>
        <kind text="7">dominant</kind>
      </harmony>
      <note default-x="58.1" default-y="-10">
        <pitch>
          <step>D</step>
          <octave>5</octave>
        </pitch>
        <duration>30240</duration>
        <type>half</type>
        <dot />
        <stem>down</stem>
      </note>
    </measure>
    <!--======================== Measure 620 =========================-->
    <measure implicit="no" number="620" width="88.88">
      <direction>
        <direction-type>
          <words color="#808080" enclosure="none" font-style="italic">C major (0)</words>
        </direction-type>
      </direction>
      <harmony>
        <root>
          <root-step>G</root-step>
        </root>
        <kind text="7">dominant</kind>
      </harmony>
      <note default-x="13" default-y="10">
        <pitch>
          <step>A</step>
          <octave>5</octave>
        </pitch>
        <duration>30240</duration>
        <type>half</type>
        <dot />
        <stem>down</stem>
      </note>
    </measure>
    <!--======================== Measure 621 =========================-->
    <measure implicit="no" number="621" width="88.88">
      <direction>
        <direction-type>
          <words color="#808080" enclosure="none" font-style="italic">C major (0)</words>
        </direction-type>
      </direction>
      <harmony>
        <root>
          <root-step>E</root-step>
        </root>
        <kind text="min7">minor-seventh</kind>
      </harmony>
      <note default-x="13" default-y="5">
        <pitch>
          <step>G</step>
          <octave>5</octave>
        </pitch>
        <duration>30240</duration>
        <type>half</type>
        <dot />
        <stem>down</stem>
      </note>
    </measure>
    <!--======================== Measure 622 =========================-->
    <measure implicit="no" number="622" width="88.88">
      <direction>
        <direction-type>
          <words color="#808080" enclosure="none" font-style="italic">C major (0)</words>
        </direction-type>
      </direction>
      <harmony>
        <root>
          <root-step>A</root-step>
        </root>
        <kind text="min7">minor-seventh</kind>
      </harmony>
      <note default-x="13" default-y="-15">
        <pitch>
          <step>C</step>
          <octave>5</octave>
        </pitch>
        <duration>30240</duration>
        <type>half</type>
        <dot />
        <stem>down</stem>
      </note>
    </measure>
    <!--======================== Measure 623 =========================-->
    <measure implicit="no" number="623" width="131.67">
      <direction>
        <direction-type>
          <words color="#808080" enclosure="none" font-style="italic">C major (0)</words>
        </direction-type>
      </direction>
      <harmony>
        <root>
          <root-step>D</root-step>
        </root>
        <kind text="min7">minor-seventh</kind>
      </harmony>
      <note default-x="13" default-y="-10">
        <pitch>
          <step>D</step>
          <octave>5</octave>
        </pitch>
        <duration>10080</duration>
        <type>quarter</type>
        <stem>down</stem>
      </note>
      <note default-x="51.96" default-y="-5">
        <pitch>
          <step>E</step>
          <octave>5</octave>
        </pitch>
        <duration>10080</duration>
        <type>quarter</type>
        <stem>down</stem>
      </note>
      <note default-x="90.91" default-y="0">
        <pitch>
          <step>F</step>
          <octave>5</octave>
        </pitch>
        <duration>10080</duration>
        <type>quarter</type>
        <stem>down</stem>
      </note>
    </measure>
    <!--======================== Measure 624 =========================-->
    <measure implicit="no" number="624" width="112.19">
      <direction>
        <direction-type>
          <words color="#808080" enclosure="none" font-style="italic">C major (0)</words>
        </direction-type>
      </direction>
      <harmony>
        <root>
          <root-step>G</root-step>
        </root>
        <kind text="7">dominant</kind>
      </harmony>
      <note default-x="13" default-y="5">
        <pitch>
          <step>G</step>
          <octave>5</octave>
        </pitch>
        <duration>20160</duration>
        <type>half</type>
        <stem>down</stem>
      </note>
      <note default-x="71.43" default-y="10">
        <pitch>
          <step>A</step>
          <octave>5</octave>
        </pitch>
        <duration>10080</duration>
        <type>quarter</type>
        <stem>down</stem>
      </note>
    </measure>
    <!--======================== Measure 625 =========================-->
    <measure implicit="no" number="625" width="112.19">
      <direction>
        <direction-type>
          <words color="#808080" enclosure="none" font-style="italic">C major (0)</words>
        </direction-type>
      </direction>
      <harmony>
        <root>
          <root-step>C</root-step>
        </root>
        <kind text="maj7">major-seventh</kind>
      </harmony>
      <note default-x="13" default-y="15">
        <pitch>
          <step>B</step>
          <octave>5</octave>
        </pitch>
        <duration>20160</duration>
        <type>half</type>
        <stem>down</stem>
      </note>
      <note default-x="71.43" default-y="5">
        <pitch>
          <step>G</step>
          <octave>5</octave>
        </pitch>
        <duration>10080</duration>
        <type>quarter</type>
        <stem>down</stem>
      </note>
    </measure>
    <!--======================== Measure 626 =========================-->
    <measure implicit="no" number="626" width="88.88">
      <direction>
        <direction-type>
          <words color="#808080" enclosure="none" font-style="italic">C major (0)</words>
        </direction-type>
      </direction>
      <harmony>
        <root>
          <root-step>F</root-step>
        </root>
        <kind text="maj7">major-seventh</kind>
      </harmony>
      <note default-x="13" default-y="-5">
        <pitch>
          <step>E</step>
          <octave>5</octave>
        </pitch>
        <duration>30240</duration>
        <type>half</type>
        <dot />
        <stem>down</stem>
      </note>
    </measure>
    <!--======================== Measure 627 =========================-->
    <measure implicit="no" number="627" width="94.63">
      <direction>
        <direction-type>
          <words color="#808080" enclosure="none" font-style="italic">G major (1)</words>
        </direction-type>
      </direction>
      <harmony>
        <root>
          <root-step>F</root-step>
          <root-alter>1</root-alter>
        </root>
        <kind text="m7">minor-seventh</kind>
      </harmony>
      <note default-x="18.76" default-y="0">
        <pitch>
          <step>F</step>
          <alter>1</alter>
          <octave>5</octave>
        </pitch>
        <duration>30240</duration>
        <type>half</type>
        <dot />
        <accidental>sharp</accidental>
        <stem>down</stem>
      </note>
    </measure>
    <!--======================== Measure 628 =========================-->
    <measure implicit="no" number="628" width="88.88">
      <direction>
        <direction-type>
          <words color="#808080" enclosure="none" font-style="italic">G major (1)</words>
        </direction-type>
      </direction>
      <harmony>
        <root>
          <root-step>B</root-step>
        </root>
        <kind text="7">dominant</kind>
        <degree>
          <degree-value>9</degree-value>
          <degree-alter>-1</degree-alter>
          <degree-type>add</degree-type>
        </degree>
      </harmony>
      <note default-x="13" default-y="20">
        <pitch>
          <step>C</step>
          <octave>6</octave>
        </pitch>
        <duration>30240</duration>
        <type>half</type>
        <dot />
        <stem>down</stem>
      </note>
    </measure>
    <!--======================== Measure 629 =========================-->
    <measure implicit="no" number="629" width="221.03">
      <print new-system="yes">
        <system-layout>
          <system-margins>
            <left-margin>0</left-margin>
            <right-margin>0</right-margin>
          </system-margins>
          <system-distance>137.66</system-distance>
        </system-layout>
      </print>
      <direction>
        <direction-type>
          <words color="#808080" enclosure="none" font-style="italic">G major (1)</words>
        </direction-type>
      </direction>
      <harmony>
        <root>
          <root-step>E</root-step>
        </root>
        <kind text="min7">minor-seventh</kind>
      </harmony>
      <note default-x="58.1" default-y="15">
        <pitch>
          <step>B</step>
          <octave>5</octave>
        </pitch>
        <duration>20160</duration>
        <type>half</type>
        <stem>down</stem>
      </note>
      <note default-x="154.77" default-y="5">
        <pitch>
          <step>G</step>
          <octave>5</octave>
        </pitch>
        <duration>10080</duration>
        <type>quarter</type>
        <stem>down</stem>
      </note>
    </measure>
    <!--======================== Measure 630 =========================-->
    <measure implicit="no" number="630" width="137.36">
      <direction>
        <direction-type>
          <words color="#808080" enclosure="none" font-style="italic">G major (1)</words>
        </direction-type>
      </direction>
      <harmony>
        <root>
          <root-step>A</root-step>
        </root>
        <kind text="7">dominant</kind>
      </harmony>
      <note default-x="13" default-y="-5">
        <pitch>
          <step>E</step>
          <octave>5</octave>
        </pitch>
        <duration>30240</duration>
        <type>half</type>
        <dot />
        <stem>down</stem>
      </note>
    </measure>
    <!--======================== Measure 631 =========================-->
    <measure implicit="no" number="631" width="175.93">
      <direction>
        <direction-type>
          <words color="#808080" enclosure="none" font-style="italic">C major (0)</words>
        </direction-type>
      </direction>
      <harmony>
        <root>
          <root-step>D</root-step>
        </root>
        <kind text="min7">minor-seventh</kind>
      </harmony>
      <note default-x="13" default-y="10">
        <pitch>
          <step>A</step>
          <octave>5</octave>
        </pitch>
        <duration>20160</duration>
        <type>half</type>
        <stem>down</stem>
      </note>
      <harmony>
        <root>
          <root-step>A</root-step>
        </root>
        <kind text="7">dominant</kind>
      </harmony>
      <note default-x="109.68" default-y="5">
        <pitch>
          <step>G</step>
          <octave>5</octave>
        </pitch>
        <duration>10080</duration>
        <type>quarter</type>
        <stem>down</stem>
      </note>
    </measure>
    <!--======================== Measure 632 =========================-->
    <measure implicit="no" number="632" width="175.93">
      <direction>
        <direction-type>
          <words color="#808080" enclosure="none" font-style="italic">C major (0)</words>
        </direction-type>
      </direction>
      <harmony>
        <root>
          <root-step>D</root-step>
        </root>
        <kind text="min7">minor-seventh</kind>
      </harmony>
      <note default-x="13" default-y="0">
        <pitch>
          <step>F</step>
          <octave>5</octave>
        </pitch>
        <duration>20160</duration>
        <type>half</type>
        <stem>down</stem>
      </note>
      <harmony>
        <root>
          <root-step>A</root-step>
        </root>
        <kind text="7">dominant</kind>
      </harmony>
      <note default-x="109.68" default-y="-5">
        <pitch>
          <step>E</step>
          <octave>5</octave>
        </pitch>
        <duration>10080</duration>
        <type>quarter</type>
        <stem>down</stem>
      </note>
    </measure>
    <!--======================== Measure 633 =========================-->
    <measure implicit="no" number="633" width="175.93">
      <direction>
        <direction-type>
          <words color="#808080" enclosure="none" font-style="italic">F major (-1)</words>
        </direction-type>
      </direction>
      <harmony>
        <root>
          <root-step>D</root-step>
        </root>
        <kind text="min7">minor-seventh</kind>
      </harmony>
      <note default-x="13" default-y="-10">
        <pitch>
          <step>D</step>
          <octave>5</octave>
        </pitch>
        <duration>20160</duration>
        <type>half</type>
        <stem>down</stem>
      </note>
      <harmony>
        <root>
          <root-step>A</root-step>
          <root-alter>-1</root-alter>
        </root>
        <kind text="7">dominant</kind>
      </harmony>
      <note default-x="109.68" default-y="-15">
        <pitch>
          <step>C</step>
          <octave>5</octave>
        </pitch>
        <duration>10080</duration>
        <type>quarter</type>
        <stem>down</stem>
      </note>
    </measure>
    <!--======================== Measure 634 =========================-->
    <measure implicit="no" number="634" width="142.86">
      <direction>
        <direction-type>
          <words color="#808080" enclosure="none" font-style="italic">C major (0)</words>
        </direction-type>
      </direction>
      <harmony>
        <root>
          <root-step>G</root-step>
        </root>
        <kind text="7">dominant</kind>
      </harmony>
      <note default-x="13" default-y="-20">
        <pitch>
          <step>B</step>
          <octave>4</octave>
        </pitch>
        <duration>30240</duration>
        <type>half</type>
        <dot />
        <stem>down</stem>
      </note>
      <barline location="right">
        <bar-style>light-light</bar-style>
      </barline>
    </measure>
    <!--======================== Measure 635 =========================-->
    <measure implicit="no" number="635" width="206.49">
      <print new-system="yes">
        <system-layout>
          <system-margins>
            <left-margin>0</left-margin>
            <right-margin>0</right-margin>
          </system-margins>
          <system-distance>137.66</system-distance>
        </system-layout>
      </print>
      <direction>
        <direction-type>
          <words color="#808080" enclosure="none" font-style="italic">C major (0)</words>
        </direction-type>
      </direction>
      <harmony>
        <root>
          <root-step>D</root-step>
        </root>
        <kind text="min7">minor-seventh</kind>
      </harmony>
      <note default-x="58.1" default-y="-30">
        <pitch>
          <step>G</step>
          <octave>4</octave>
        </pitch>
        <duration>30240</duration>
        <type>half</type>
        <dot />
        <stem>up</stem>
      </note>
    </measure>
    <!--======================== Measure 636 =========================-->
    <measure implicit="no" number="636" width="207.53">
      <direction>
        <direction-type>
          <words color="#808080" enclosure="none" font-style="italic">C major (0)</words>
        </direction-type>
      </direction>
      <harmony>
        <root>
          <root-step>G</root-step>
        </root>
        <kind text="7">dominant</kind>
      </harmony>
      <note default-x="13" default-y="5">
        <pitch>
          <step>G</step>
          <octave>5</octave>
        </pitch>
        <duration>20160</duration>
        <type>half</type>
        <stem>down</stem>
      </note>
      <note default-x="128.64" default-y="0">
        <pitch>
          <step>F</step>
          <octave>5</octave>
        </pitch>
        <duration>10080</duration>
        <type>quarter</type>
        <stem>down</stem>
      </note>
    </measure>
    <!--======================== Measure 637 =========================-->
    <measure implicit="no" number="637" width="207.53">
      <direction>
        <direction-type>
          <words color="#808080" enclosure="none" font-style="italic">C major (0)</words>
        </direction-type>
      </direction>
      <harmony>
        <root>
          <root-step>C</root-step>
        </root>
        <kind text="maj7">major-seventh</kind>
      </harmony>
      <note default-x="13" default-y="-5">
        <pitch>
          <step>E</step>
          <octave>5</octave>
        </pitch>
        <duration>20160</duration>
        <type>half</type>
        <stem>down</stem>
      </note>
      <note default-x="128.64" default-y="-15">
        <pitch>
          <step>C</step>
          <octave>5</octave>
        </pitch>
        <duration>10080</duration>
        <type>quarter</type>
        <stem>down</stem>
      </note>
    </measure>
    <!--======================== Measure 638 =========================-->
    <measure implicit="no" number="638" width="161.39">
      <direction>
        <direction-type>
          <words color="#808080" enclosure="none" font-style="italic">C major (0)</words>
        </direction-type>
      </direction>
      <harmony>
        <root>
          <root-step>F</root-step>
        </root>
        <kind text="maj7">major-seventh</kind>
      </harmony>
      <note default-x="13" default-y="-30">
        <pitch>
          <step>G</step>
          <octave>4</octave>
        </pitch>
        <duration>30240</duration>
        <type>half</type>
        <dot />
        <stem>up</stem>
      </note>
    </measure>
    <!--======================== Measure 639 =========================-->
    <measure implicit="no" number="639" width="246.08">
      <direction>
        <direction-type>
          <words color="#808080" enclosure="none" font-style="italic">C major (0)</words>
        </direction-type>
      </direction>
      <harmony>
        <root>
          <root-step>B</root-step>
        </root>
        <kind>half-diminished</kind>
      </harmony>
      <note default-x="13" default-y="-10">
        <pitch>
          <step>D</step>
          <octave>5</octave>
        </pitch>
        <duration>10080</duration>
        <type>quarter</type>
        <stem>down</stem>
      </note>
      <note default-x="90.09" default-y="-5">
        <pitch>
          <step>E</step>
          <octave>5</octave>
        </pitch>
        <duration>10080</duration>
        <type>quarter</type>
        <stem>down</stem>
      </note>
      <note default-x="167.19" default-y="0">
        <pitch>
          <step>F</step>
          <octave>5</octave>
        </pitch>
        <duration>10080</duration>
        <type>quarter</type>
        <stem>down</stem>
      </note>
    </measure>
    <!--======================== Measure 640 =========================-->
    <measure implicit="no" number="640" width="243.33">
      <print new-system="yes">
        <system-layout>
          <system-margins>
            <left-margin>0</left-margin>
            <right-margin>0</right-margin>
          </system-margins>
          <system-distance>137.66</system-distance>
        </system-layout>
      </print>
      <direction>
        <direction-type>
          <words color="#808080" enclosure="none" font-style="italic">a minor (0)</words>
        </direction-type>
      </direction>
      <harmony>
        <root>
          <root-step>E</root-step>
        </root>
        <kind text="7">dominant</kind>
      </harmony>
      <note default-x="58.1" default-y="-5">
        <pitch>
          <step>E</step>
          <octave>5</octave>
        </pitch>
        <duration>20160</duration>
        <type>half</type>
        <stem>down</stem>
      </note>
      <note default-x="168.16" default-y="-10">
        <pitch>
          <step>D</step>
          <octave>5</octave>
        </pitch>
        <duration>10080</duration>
        <type>quarter</type>
        <stem>down</stem>
      </note>
    </measure>
    <!--======================== Measure 641 =========================-->
    <measure implicit="no" number="641" width="198.23">
      <direction>
        <direction-type>
          <words color="#808080" enclosure="none" font-style="italic">C major (0)</words>
        </direction-type>
      </direction>
      <harmony>
        <root>
          <root-step>A</root-step>
        </root>
        <kind text="m7">minor-seventh</kind>
      </harmony>
      <note default-x="13" default-y="-5">
        <pitch>
          <step>E</step>
          <octave>5</octave>
        </pitch>
        <duration>20160</duration>
        <type>half</type>
        <stem>down</stem>
      </note>
      <note default-x="123.06" default-y="-15">
        <pitch>
          <step>C</step>
          <octave>5</octave>
        </pitch>
        <duration>10080</duration>
        <type>quarter</type>
        <stem>down</stem>
      </note>
    </measure>
    <!--======================== Measure 642 =========================-->
    <measure implicit="no" number="642" width="154.32">
      <direction>
        <direction-type>
          <words color="#808080" enclosure="none" font-style="italic">B- major (-2)</words>
        </direction-type>
      </direction>
      <harmony>
        <root>
          <root-step>E</root-step>
          <root-alter>-1</root-alter>
        </root>
        <kind text="7">dominant</kind>
      </harmony>
      <note default-x="13" default-y="-30">
        <pitch>
          <step>G</step>
          <octave>4</octave>
        </pitch>
        <duration>30240</duration>
        <type>half</type>
        <dot />
        <stem>up</stem>
      </note>
    </measure>
    <!--======================== Measure 643 =========================-->
    <measure implicit="no" number="643" width="234.92">
      <direction>
        <direction-type>
          <words color="#808080" enclosure="none" font-style="italic">F major (-1)</words>
        </direction-type>
      </direction>
      <harmony>
        <root>
          <root-step>D</root-step>
        </root>
        <kind text="m7">minor-seventh</kind>
      </harmony>
      <note default-x="13" default-y="-10">
        <pitch>
          <step>D</step>
          <octave>5</octave>
        </pitch>
        <duration>10080</duration>
        <type>quarter</type>
        <stem>down</stem>
      </note>
      <note default-x="86.37" default-y="-5">
        <pitch>
          <step>E</step>
          <octave>5</octave>
        </pitch>
        <duration>10080</duration>
        <type>quarter</type>
        <stem>down</stem>
      </note>
      <note default-x="159.75" default-y="0">
        <pitch>
          <step>F</step>
          <octave>5</octave>
        </pitch>
        <duration>10080</duration>
        <type>quarter</type>
        <stem>down</stem>
      </note>
    </measure>
    <!--======================== Measure 644 =========================-->
    <measure implicit="no" number="644" width="198.23">
      <direction>
        <direction-type>
          <words color="#808080" enclosure="none" font-style="italic">C major (0)</words>
        </direction-type>
      </direction>
      <harmony>
        <root>
          <root-step>G</root-step>
        </root>
        <kind text="7">dominant</kind>
      </harmony>
      <note default-x="13" default-y="-5">
        <pitch>
          <step>E</step>
          <octave>5</octave>
        </pitch>
        <duration>20160</duration>
        <type>half</type>
        <stem>down</stem>
      </note>
      <note default-x="123.06" default-y="-10">
        <pitch>
          <step>D</step>
          <octave>5</octave>
        </pitch>
        <duration>10080</duration>
        <type>quarter</type>
        <stem>down</stem>
      </note>
    </measure>
    <!--======================== Measure 645 =========================-->
    <measure implicit="no" number="645" width="220.36">
      <print new-system="yes">
        <system-layout>
          <system-margins>
            <left-margin>0</left-margin>
            <right-margin>0</right-margin>
          </system-margins>
          <system-distance>137.66</system-distance>
        </system-layout>
      </print>
      <direction>
        <direction-type>
          <words color="#808080" enclosure="none" font-style="italic">C major (0)</words>
        </direction-type>
      </direction>
      <harmony>
        <root>
          <root-step>E</root-step>
        </root>
        <kind text="m7">minor-seventh</kind>
      </harmony>
      <note default-x="58.1" default-y="-5">
        <pitch>
          <step>E</step>
          <octave>5</octave>
        </pitch>
        <duration>20160</duration>
        <type>half</type>
        <stem>down</stem>
      </note>
      <note default-x="154.37" default-y="5">
        <pitch>
          <step>G</step>
          <octave>5</octave>
        </pitch>
        <duration>10080</duration>
        <type>quarter</type>
        <stem>down</stem>
      </note>
    </measure>
    <!--======================== Measure 646 =========================-->
    <measure implicit="no" number="646" width="175.26">
      <direction>
        <direction-type>
          <words color="#808080" enclosure="none" font-style="italic">C major (0)</words>
        </direction-type>
      </direction>
      <harmony>
        <root>
          <root-step>A</root-step>
        </root>
        <kind text="m7">minor-seventh</kind>
      </harmony>
      <note default-x="13" default-y="20">
        <pitch>
          <step>C</step>
          <octave>6</octave>
        </pitch>
        <duration>20160</duration>
        <type>half</type>
        <stem>down</stem>
      </note>
      <note default-x="109.28" default-y="10">
        <pitch>
          <step>A</step>
          <octave>5</octave>
        </pitch>
        <duration>10080</duration>
        <type>quarter</type>
        <stem>down</stem>
      </note>
    </measure>
    <!--======================== Measure 647 =========================-->
    <measure implicit="no" number="647" width="175.26">
      <direction>
        <direction-type>
          <words color="#808080" enclosure="none" font-style="italic">C major (0)</words>
        </direction-type>
      </direction>
      <harmony>
        <root>
          <root-step>D</root-step>
        </root>
        <kind text="m7">minor-seventh</kind>
      </harmony>
      <note default-x="13" default-y="5">
        <pitch>
          <step>G</step>
          <octave>5</octave>
        </pitch>
        <duration>20160</duration>
        <type>half</type>
        <stem>down</stem>
      </note>
      <note default-x="109.28" default-y="0">
        <pitch>
          <step>F</step>
          <octave>5</octave>
        </pitch>
        <duration>10080</duration>
        <type>quarter</type>
        <stem>down</stem>
      </note>
    </measure>
    <!--======================== Measure 648 =========================-->
    <measure implicit="no" number="648" width="175.26">
      <direction>
        <direction-type>
          <words color="#808080" enclosure="none" font-style="italic">C major (0)</words>
        </direction-type>
      </direction>
      <harmony>
        <root>
          <root-step>G</root-step>
        </root>
        <kind text="7">dominant</kind>
      </harmony>
      <note default-x="13" default-y="-5">
        <pitch>
          <step>E</step>
          <octave>5</octave>
        </pitch>
        <duration>20160</duration>
        <type>half</type>
        <stem>down</stem>
      </note>
      <note default-x="109.28" default-y="-10">
        <pitch>
          <step>D</step>
          <octave>5</octave>
        </pitch>
        <duration>10080</duration>
        <type>quarter</type>
        <stem>down</stem>
      </note>
    </measure>
    <!--======================== Measure 649 =========================-->
    <measure implicit="no" number="649" width="136.85">
      <direction>
        <direction-type>
          <words color="#808080" enclosure="none" font-style="italic">C major (0)</words>
        </direction-type>
      </direction>
      <harmony>
        <root>
          <root-step>C</root-step>
        </root>
        <kind>major-seventh</kind>
      </harmony>
      <note default-x="13" default-y="-15">
        <pitch>
          <step>C</step>
          <octave>5</octave>
        </pitch>
        <duration>30240</duration>
        <tie type="start" />
        <type>half</type>
        <dot />
        <stem>down</stem>
        <notations>
          <tied type="start" />
        </notations>
      </note>
    </measure>
    <!--======================== Measure 650 =========================-->
    <measure implicit="no" number="650" width="146.05">
      <direction>
        <direction-type>
          <words color="#808080" enclosure="none" font-style="italic">C major (0)</words>
        </direction-type>
      </direction>
      <note default-x="13" default-y="-15">
        <pitch>
          <step>C</step>
          <octave>5</octave>
        </pitch>
        <duration>30240</duration>
        <tie type="stop" />
        <type>half</type>
        <dot />
        <stem>down</stem>
        <notations>
          <tied type="stop" />
        </notations>
      </note>
      <barline location="right">
        <bar-style>light-heavy</bar-style>
      </barline>
    </measure>
  </part>
</score-partwise>